<?xml version="1.0" encoding="utf-8"?>
<!-- Generator: Adobe Illustrator 27.0.0, SVG Export Plug-In . SVG Version: 6.00 Build 0)  -->
<svg version="1.1" id="Capa_1" xmlns="http://www.w3.org/2000/svg" xmlns:xlink="http://www.w3.org/1999/xlink" x="0px" y="0px"
	 viewBox="0 0 1080 1080" style="enable-background:new 0 0 1080 1080;" xml:space="preserve">
<style type="text/css">
	.st0{fill:#FB4C67;}
</style>
<g>
	<g>
		<path class="st0" d="M456.4,531.55c9.32,0,17.71,2.37,25.17,7.1v-3.87c0-6.74-1.65-11.61-4.95-14.63
			c-3.16-3.15-7.67-4.73-13.55-4.73c-8.17,0-17.57,2.94-28.18,8.82l-9.46-19.36c13.48-8.17,27.82-12.26,43.02-12.26
			c15.2,0,26.96,4.95,35.28,14.84c5.02,6.17,7.53,15.2,7.53,27.1v59.37h-28.39l-0.65-8.17c-7.17,7.03-16.49,10.54-27.96,10.54
			c-10.32,0-18.86-2.97-25.6-8.93c-6.74-5.95-10.11-13.87-10.11-23.77c0-9.03,3.44-16.63,10.32-22.8
			C435.75,534.64,444.93,531.55,456.4,531.55z M476.19,572.96c3.58-2.37,5.38-5.63,5.38-9.79c0-4.16-1.87-7.49-5.59-10
			c-3.73-2.51-7.89-3.76-12.48-3.76c-4.73,0-8.68,1.22-11.83,3.66c-3.16,2.44-4.73,5.74-4.73,9.89c0,4.16,1.54,7.46,4.62,9.89
			c3.08,2.44,6.99,3.66,11.72,3.66C468.3,576.51,472.6,575.32,476.19,572.96z"/>
		<path class="st0" d="M613.85,524.88h-28.39c-0.86-8.75-6.6-13.12-17.21-13.12c-4.45,0-8.03,0.97-10.75,2.9
			c-2.73,1.94-4.09,4.27-4.09,6.99c0,3.59,2.29,6.38,6.88,8.39c1.29,0.57,4.87,1.51,10.75,2.8l10.75,2.15
			c11.04,2.44,18.93,5.38,23.66,8.82c6.59,4.88,9.89,11.69,9.89,20.43c0,8.89-3.76,16.45-11.29,22.69
			c-7.53,6.24-19.04,9.36-34.52,9.36c-15.63,0-27.46-2.97-35.49-8.93c-8.03-5.95-12.19-14.09-12.48-24.41h29.9
			c0.29,4.3,1.94,7.74,4.95,10.32c3.01,2.58,7.46,3.87,13.34,3.87c4.73,0,8.53-0.89,11.4-2.69c2.87-1.79,4.3-4.19,4.3-7.21
			c0-3.58-2.73-6.45-8.17-8.6c-4.02-1.29-7.67-2.22-10.97-2.8l-10.11-2.15c-10.18-2.01-18.1-5.09-23.77-9.25
			c-5.67-4.16-8.5-10.54-8.5-19.14c0-8.89,3.8-16.56,11.4-23.02c7.6-6.45,18.57-9.68,32.91-9.68c12.91,0,23.69,2.87,32.37,8.6
			C609.29,506.96,613.7,514.85,613.85,524.88z"/>
		<path class="st0" d="M734.08,544.46c0,15.78-4.41,28.36-13.23,37.75c-8.82,9.39-19.75,14.09-32.8,14.09
			c-11.62,0-21.51-4.23-29.68-12.69l-0.43,0.21v55.28h-30.33V494.99h28.18l0.86,10.97l0.43,0.21c3.58-3.87,8.17-7.1,13.77-9.68
			c5.59-2.58,11.47-3.87,17.64-3.87c12.91,0,23.73,4.59,32.48,13.77C729.71,515.56,734.08,528.25,734.08,544.46z M657.94,544.24
			c0,8.6,2.11,15.52,6.35,20.76c4.23,5.24,9.79,7.85,16.67,7.85c6.74,0,12.19-2.65,16.35-7.96c4.16-5.3,6.24-12.19,6.24-20.65
			c0-8.46-2.12-15.27-6.35-20.43c-4.23-5.16-9.65-7.74-16.24-7.74c-7.17,0-12.8,2.58-16.88,7.74S657.94,535.78,657.94,544.24z"/>
		<path class="st0" d="M852.81,544.46c0,15.78-4.41,28.36-13.23,37.75c-8.82,9.39-19.75,14.09-32.8,14.09
			c-11.62,0-21.51-4.23-29.68-12.69l-0.43,0.21v55.28h-30.33V494.99h28.18l0.86,10.97l0.43,0.21c3.58-3.87,8.17-7.1,13.77-9.68
			c5.59-2.58,11.47-3.87,17.64-3.87c12.91,0,23.73,4.59,32.48,13.77C848.44,515.56,852.81,528.25,852.81,544.46z M776.67,544.24
			c0,8.6,2.11,15.52,6.35,20.76c4.23,5.24,9.79,7.85,16.67,7.85c6.74,0,12.19-2.65,16.35-7.96c4.16-5.3,6.24-12.19,6.24-20.65
			c0-8.46-2.12-15.27-6.35-20.43c-4.23-5.16-9.65-7.74-16.24-7.74c-7.17,0-12.8,2.58-16.88,7.74S776.67,535.78,776.67,544.24z"/>
		<path class="st0" d="M863.14,456.05c0-4.73,1.68-8.82,5.05-12.26c3.37-3.44,7.42-5.16,12.15-5.16c4.87,0,9,1.72,12.37,5.16
			c3.37,3.44,5.05,7.53,5.05,12.26c0,4.88-1.69,8.96-5.05,12.26c-3.37,3.3-7.5,4.95-12.37,4.95c-4.73,0-8.79-1.65-12.15-4.95
			C864.82,465.02,863.14,460.93,863.14,456.05z M895.62,593.93h-30.33v-98.94h30.33V593.93z"/>
	</g>
	<path class="st0" d="M234.39,533.59c7.27,0.24,13.64,6.8,13.55,13.95c-0.1,7.32-7.17,14.34-14.51,14.39
		c-7.69,0.05-14.48-6.71-14.37-14.32C219.17,539.25,225.68,533.29,234.39,533.59z"/>
	<path class="st0" d="M371.04,630.59c-1.9-7.58-3.82-15.16-5.36-22.82c-0.84-4.17-2.61-7.22-5.33-8.81
		c-1.62-0.95-3.03-0.86-7.47-1.04c-2.63-0.11-6.32-0.3-10.79-0.65c-0.22-2.43-0.53-6.03-0.9-10.39
		c-2.43-29.03-2.48-36.86-4.03-55.51c-1.29-15.54-2.1-31.07-8.07-45.94c-10-24.95-32.32-36.65-64.09-32.59
		c-20.36,2.61-34.95,19.35-37.57,43.69c-0.48,4.39-1.68,6.76-6.29,7.67c-24.92,4.92-38.28,24.69-38.68,50.47
		c-0.39,25.54,0.01,51.1-0.23,76.64c-0.07,7.65,3.32,10.21,10.59,10.05c13.35-0.29,26.71-0.08,40.07-0.08v-0.03
		c13.93,0,27.87-0.2,41.81,0.08c6.83,0.14,9.36-2.87,9.31-9.38c-0.06-7.75,0.36-15.59,0.23-23.27c-0.14-8.16-0.62-16.27-0.52-24.45
		c0.11-9.15,0.36-18.31,0.03-27.46c-0.31-8.64-0.63-17.43-4.09-25.39c-5.63-12.96-17.48-23.2-31.37-26.19
		c-6.13-1.32-7.29-4.02-6.54-9.54c3.04-22.57,24.47-34.77,48.66-27.74c19.2,5.59,27.16,20.48,29.43,38.19
		c2.62,20.41,5.16,37.01,6.71,77.03c0.22,5.74,0.41,10.59,0.54,14.14c-2.27,0.07-7.06,0.22-14.53,0.48
		c-5.42,0.19-8.48,0.37-10.96,2.58c-1.24,1.12-2.21,2.72-2.8,5.01c-2.24,8.69-4.62,17.36-6.26,26.17c-1.02,5.45,0.74,9.78,7.65,9.75
		c20.9-0.07,41.81-0.01,62.72-0.02C370.23,641.23,372.82,637.66,371.04,630.59z M197.64,625.94c0.01-4.03,0.03-8.06,0.04-12.1
		c23.69,0.01,47.38,0.01,71.08,0.01c0.06,3.97,0.12,7.95,0.18,11.93C245.17,625.83,221.41,625.89,197.64,625.94z M252.22,522.06
		c7.75,4.82,13.16,14.17,15.57,22.79c2.77,9.89,1.25,20.02,1.3,30.11c0.04,7.77,0,15.54,0,23.31h-72V555.4
		c0-9.18,1.28-17.52,6.9-25.05c4.74-6.34,11.67-11.11,19.49-12.64C233.19,515.8,243.71,516.76,252.22,522.06z M342.09,626.27
		c-0.57-3.47-3.2-6.13-6.35-6.6c-3.84-0.56-7.83,2.25-8.65,6.6h-18c1.33-4.33,2.67-8.67,4-13h37c1.25,4.44,2.51,8.88,3.76,13.32
		C349.93,626.49,346.01,626.38,342.09,626.27z"/>
	<path class="st0" d="M247.94,547.54c-0.1,7.32-7.17,14.34-14.51,14.39c-7.69,0.05-14.48-6.71-14.37-14.32
		c0.11-8.36,6.62-14.32,15.33-14.02C241.66,533.83,248.03,540.39,247.94,547.54z"/>
	<path class="st0" d="M247.94,547.54c-0.1,7.32-7.17,14.34-14.51,14.39c-7.69,0.05-14.48-6.71-14.37-14.32
		c0.11-8.36,6.62-14.32,15.33-14.02C241.66,533.83,248.03,540.39,247.94,547.54z"/>
</g>
</svg>
